<?xml version="1.0" encoding="utf-8"?>
<!-- Generator: Adobe Illustrator 24.2.0, SVG Export Plug-In . SVG Version: 6.00 Build 0)  -->
<svg version="1.1" id="Capa_1" xmlns="http://www.w3.org/2000/svg" xmlns:xlink="http://www.w3.org/1999/xlink" x="0px" y="0px"
	 viewBox="0 0 612 612" style="enable-background:new 0 0 612 612;" xml:space="preserve">
<style type="text/css">
	.st0{fill:#FF9015;}
	.st1{fill:#B78B1E;}
	.st2{fill:#FFFFFF;}
</style>
<path class="st0" d="M496.42,281.42c0-111.49-90.38-201.87-201.87-201.87S92.69,169.93,92.69,281.42
	c0,42.04,12.65,80.07,34.14,112.45l124.5-83.38v168.15c13.93,3.04,28.38,4.65,43.22,4.65C406.04,483.28,496.42,392.91,496.42,281.42
	z"/>
<path class="st1" d="M294.55,14.12c-147.54,0-267.57,120.03-267.57,267.57c0,55.39,16.19,106.08,45.13,148.82l36.64-24.54
	c-24.27-35.71-37.58-77.83-37.58-124.16c0-123.06,100.32-223.6,223.38-223.6s223.6,100.54,223.6,223.6
	c0,123.06-100.54,223.33-223.6,223.33c-14.78,0-29.23-1.42-43.22-4.18v44.79c14.07,2.3,28.51,3.51,43.22,3.51
	c147.54,0,267.57-120.03,267.57-267.57C562.13,134.16,442.09,14.12,294.55,14.12z"/>
<path class="st0" d="M105.47,438.28c31.42,38.4,75.48,67.32,125.53,80.7l0-166.97L105.47,438.28z"/>
<path class="st1" d="M87.18,450.83l-36.02,24.7c42.21,53.13,105.01,95.23,179.84,110.75l0-44.64
	C171.3,526.89,123.58,494.88,87.18,450.83z"/>
<g>
	<path class="st2" d="M196.89,228.53c1.15-7.49,1.72-13.32,1.7-17.75c-0.02-4.43-0.84-7.71-2.47-10.06
		c-1.63-2.35-3.73-3.23-6.29-2.76c-2.56,0.47-4.68,2.51-6.37,6.48c-1.69,3.97-2.53,8.53-2.52,13.69
		c0.02,10.04,3.78,18.44,10.85,23.97c7.2,5.64,12.19,9.88,14.82,12.46c2.64,2.58,4.51,5.06,5.61,7.44
		c2.75,6.19,4.15,12.76,4.19,19.59c0.06,11.82-2.64,20.83-8.1,28.65c-5.47,7.82-11.66,12.95-18.57,16.51
		c-8.17,4.22-15.03,5.11-20.52-1.03c-3.97-4.44-7.61-11.85-10.92-23.01c5.21-6.88,7.81-10.27,13.04-16.89
		c2.07,8.51,4.67,14.77,7.79,19c3.12,4.24,6.45,5.12,9.98,3.48c2.26-1.05,4.3-2.95,6.1-5.76c1.81-2.81,2.7-6.27,2.68-10.64
		c-0.02-4.38-1.17-8.19-3.44-11.38c-2.27-3.18-5.31-6.31-9.1-9.37s-6.72-5.77-8.79-7.98c-2.07-2.21-4.36-5.22-6.87-9.08
		c-4.75-7.47-7.11-18.73-7.12-31.89c0-13.15,2.71-23.35,8.13-30.78c5.42-7.43,11.87-10.48,19.39-11.45
		c7.52-0.97,13.9,0.56,19.14,6.25c5.24,5.69,7.9,12.98,7.95,21.82c0.05,8.84-1.09,17.4-3.42,25.07
		C206.98,231.33,203.61,230.4,196.89,228.53z"/>
	<path class="st2" d="M269.47,288.47c-1.42-6.5-2.12-10.73-3.49-19.99c-8.22,2.73-12.32,4.18-20.51,7.24
		c-1.97,14.12-2.95,20.65-4.86,29.4c-7.73,2.55-11.59,3.89-19.29,6.69c9.22-45.08,13.57-90.95,23.44-135.91
		c10.1-0.34,15.17-0.49,25.33-0.74c7.62,36.08,11.42,72.75,19.51,108.74C281.53,285.6,277.51,286.52,269.47,288.47z M256.38,193
		c-3.21,20.87-4.89,35.93-8.18,61.53c6.15-2,9.23-2.96,15.4-4.8C260.71,226.76,259.31,212.75,256.38,193z"/>
	<path class="st2" d="M301.72,282.32c-0.65-7.84-1.06-21.73-1.26-40.79c-0.2-19.05-4.11-62.92,0.41-69.31
		c2.05-2.9,15.53-4.27,23.68-4.81c8.16-0.54,15.56,0.72,22.16,5.37c6.59,4.64,10,11.89,10.16,22.4
		c0.16,10.52-3.23,20.81-10.12,29.98c-6.89,9.17-15.96,16.49-27.19,22.32c0.17,12.54,0.51,24.07,1.12,31.62
		C313.08,280.28,309.29,280.92,301.72,282.32z M333,214.54c3.32-5.41,4.94-11.07,4.86-16.83c-0.08-5.75-1.43-9.98-4.04-12.95
		c-2.61-2.97-5.48-4.19-8.62-3.94c-0.83,0.07-2.72,0.45-5.66,1.17c-0.18,13.09-0.29,29.82-0.21,45.57
		C325.12,224.3,329.68,219.95,333,214.54z"/>
	<path class="st2" d="M382.53,233.38c0.07,5.6,1.21,10.3,3.42,14.1c2.2,3.8,4.77,5.37,7.69,5.12c2.92-0.25,5.22-1.67,6.93-4.46
		c1.7-2.79,2.89-6.51,3.56-11.32c1.18-8.48,1.73-18.99,1.6-30.54c-0.13-11.56-0.85-29.87-2.77-42.42
		c7.61,0.22,11.41,0.35,19.02,0.65c1.98,13.47,2.69,30.15,2.77,38.06c0.08,7.91,0.03,13.62-0.12,16.83c-0.16,3.21-0.49,6.93-1,11.08
		c-0.51,4.14-1.2,7.93-2.07,11.34c-0.87,3.41-2.06,6.7-3.56,9.82c-1.5,3.12-3.28,5.63-5.34,7.64c-4.57,4.61-10.87,6.67-18.97,7.38
		c-8.1,0.71-15.16-0.75-21.09-6.62c-5.93-5.88-8.96-14.23-9.1-24.74c-0.31-23.09,0.6-52.24,1.99-68.04
		c7.58,0.12,11.38,0.2,18.97,0.39C383.08,182.8,382.22,209.9,382.53,233.38z"/>
</g>
<g>
	<g>
		<path class="st2" d="M274.33,396.02c-0.96-10.02-1.4-26.89-1.55-46.17c-0.15-19.27,0.09-34.53,0.57-43.4
			c7.36-1.73,10.99-2.52,18.17-3.93c-0.63,8.56-1.04,22.64-1.18,40.82c10.84-23.53,19.15-40.63,24.35-50.52
			c6.52,0.35,9.74,0.69,16.14,1.67c-6.01,11.68-14.65,29.19-25.29,50.44c8.07,13.79,15.68,23.3,23.16,28.9
			c-4.56,5.85-6.81,8.61-11.21,13.46c-9.53-5.69-18.46-16.36-27.24-33.21c-0.13,18.1,0.2,30.84,0.98,38
			C284.52,393.41,281.14,394.2,274.33,396.02z"/>
		<path class="st2" d="M376.27,379.9c-1.05-6.73-1.5-10.53-2.32-18.41c-7.38,0.4-11.05,0.69-18.38,1.5
			c-2.21,10.51-3.24,15.48-4.99,23.01c-6.82-0.21-10.22-0.19-17.02,0.08c8.29-33.31,16.42-66.66,24.69-99.98
			c9.36-0.61,14.03-0.77,23.46-0.81c4.74,32.36,8.33,64.79,12.5,97.23C386.98,381.25,383.4,380.72,376.27,379.9z M368.55,301.02
			c-3.63,17.16-5.85,27.7-9.78,46.38c5.55-0.62,8.32-0.88,13.9-1.28C371.15,327.74,370.57,317.49,368.55,301.02z"/>
		<path class="st2" d="M431.5,281.48c-0.9,13.86-2.45,32.55-4,53.69c-1.55,21.14-2.2,40.33-1.17,54.92
			c-6.9-1.96-10.32-2.84-17.12-4.41c-0.94-17.47-0.08-37.54,1.04-54.78c1.12-17.25,2.6-35.66,3.34-50.75
			C420.68,280.52,424.25,280.79,431.5,281.48z"/>
	</g>
</g>
<g>
	<g>
		<path class="st2" d="M239.11,157.82c-1.28,2.39-2.53,4.26-3.76,5.7c-1.23,1.43-2.41,2.19-3.56,2.36
			c-0.58,0.09-1.02,0.02-1.31-0.22c-0.5-0.38-0.75-0.78-0.75-1.2s0.13-0.76,0.39-1c2.59-2.42,5.46-9.25,8.63-21.49
			c0.61-2.33,0.91-3.49,1.52-5.78c1.76-6.54,3.25-10.21,4.47-11.62c0.43-0.39,0.88-0.59,1.34-0.59c0.47-0.01,0.87,0.07,1.21,0.23
			c0.34,0.16,0.65,0.37,0.9,0.63c0.58,0.59,0.88,1.29,0.87,2.11c0,0.31-0.12,0.75-0.36,1.34c-0.24,0.59-0.52,1.36-0.83,2.33
			c-1.31,4.54-1.97,6.97-3.28,11.76c4.18-1.29,7.62-3.73,10.35-7.2c2.55-3.25,3.82-6.4,3.83-9.46c0-2.9-1.13-4.64-3.4-5.47
			c-0.77-0.29-1.67-0.43-2.69-0.42c-1.02,0.01-2.07,0.15-3.14,0.43c-1.07,0.29-2.11,0.66-3.15,1.12c-2.08,0.95-3.78,2.1-5.11,3.47
			c-0.35,0.39-0.72,0.6-1.14,0.61c-0.41,0.01-0.8-0.08-1.16-0.28c-0.36-0.2-0.68-0.46-0.95-0.78c-0.64-0.7-0.95-1.42-0.95-2.14
			c0-0.72,0.22-1.35,0.67-1.91c0.45-0.55,1.04-1.05,1.78-1.48c0.74-0.43,1.59-0.81,2.55-1.14c0.96-0.33,1.96-0.61,2.97-0.82
			c2.05-0.44,4.12-0.64,6.15-0.64s3.9,0.24,5.6,0.74c1.69,0.5,3.09,1.18,4.19,2.05c2.21,1.76,3.32,4.08,3.32,7.08
			c0,0.19,0,0.28,0,0.47c-0.16,3.71-1.39,7.2-3.7,10.34c-2.01,2.73-4.63,4.99-7.79,6.78c-2.87,1.62-5.59,2.59-8.14,2.82
			c-0.27,0.02-0.4,0.04-0.67,0.06c-0.23,0.02-0.44,0.02-0.64-0.01C241.81,151.73,240.39,155.42,239.11,157.82z"/>
		<path class="st2" d="M271.29,155.79c0.45-0.04,0.67,0.25,0.67,0.85c0,0.8-0.36,1.65-1.06,2.54c-1.03,1.3-2.42,2.01-4.15,2.2
			c-2,0.22-3.36-0.37-4.1-1.93c-0.27-0.55-0.41-1.24-0.41-2.1c0-0.86,0.14-1.85,0.43-2.97c0.28-1.12,0.64-2.34,1.06-3.63
			c0.42-1.29,0.88-2.62,1.38-3.98c0.55-1.58,0.82-2.37,1.37-3.97c1-2.96,1.5-4.9,1.51-5.83c0-0.92-0.08-1.53-0.24-1.82
			c-0.16-0.29-0.34-0.51-0.53-0.67c-0.21-0.16-0.31-0.24-0.52-0.41c-0.17-0.14-0.26-0.39-0.26-0.74c0-0.36,0.12-0.71,0.35-1.04
			c0.23-0.33,0.54-0.63,0.92-0.88c0.77-0.49,1.68-0.74,2.71-0.77c2.53-0.07,3.79,0.65,3.79,2.18c0,1.8-0.41,3.88-1.22,6.26
			c-0.81,2.38-1.5,4.31-2.07,5.78c-0.62,1.71-0.93,2.56-1.55,4.24c-1.14,3.09-1.71,5.2-1.71,6.43c0,0.81,0.38,1.16,1.13,1.08
			c0.74-0.08,1.3-0.23,1.68-0.47C270.84,155.94,271.11,155.81,271.29,155.79z M276.62,123.75c-0.38,0.44-0.81,0.8-1.29,1.08
			c-0.48,0.28-0.99,0.46-1.52,0.53c-0.53,0.07-1.04-0.01-1.51-0.25c-0.47-0.24-0.88-0.59-1.22-1.03c-0.74-0.93-1.11-1.87-1.11-2.79
			c0-0.92,0.14-1.6,0.43-2.04c0.28-0.45,0.64-0.8,1.07-1.08c0.83-0.53,1.6-0.79,2.34-0.79c0.73,0,1.3,0.05,1.7,0.15
			c0.4,0.1,0.78,0.27,1.12,0.5c0.84,0.56,1.26,1.25,1.26,2.08c0,0.83-0.12,1.54-0.35,2.12C277.31,122.8,277,123.31,276.62,123.75z"
			/>
		<path class="st2" d="M282.25,155.47c2.89-1.24,5.56-1.95,8-2.14c1.64-0.13,2.9,0.25,3.79,1.11c0.81,0.77,1.21,1.86,1.21,3.22
			c0,0.31-0.1,0.58-0.31,0.8c-0.21,0.22-0.48,0.34-0.83,0.37c-0.35,0.03-0.71-0.04-1.08-0.18c-0.38-0.15-0.82-0.31-1.32-0.49
			c-3.25-1.14-6.83-0.71-10.74,1.29c-0.5,0.26-0.93,0.45-1.29,0.57c-0.36,0.12-0.77,0.11-1.21-0.04c-0.45-0.15-0.87-0.38-1.26-0.67
			c-0.98-0.74-1.32-1.56-1.03-2.45c0.29-0.9,0.77-1.91,1.44-3.03c0.66-1.13,1.43-2.27,2.29-3.43c0.86-1.16,1.79-2.32,2.79-3.46
			c2.64-2.92,4.54-4.97,5.71-6.13c2.69-2.7,4.33-4.33,4.93-4.97c0.59-0.63,0.99-1.13,1.2-1.5c-1.52,0.81-3.51,1.4-5.99,1.78
			c-0.64,0.1-1.16,0.16-1.58,0.18c-1.77,0.07-3.03-0.24-3.78-0.94c-0.75-0.7-1.12-1.78-1.12-3.22c0-0.56,0.11-1.01,0.34-1.34
			c0.22-0.32,0.49-0.49,0.79-0.5c0.3-0.01,0.7,0.08,1.18,0.27c0.49,0.19,1.09,0.4,1.79,0.63c1.84,0.61,3.46,0.89,4.85,0.85
			c1.39-0.04,2.37-0.13,2.92-0.3c0.55-0.17,1.04-0.33,1.47-0.51c0.48-0.21,0.71-0.32,1.19-0.53c0.36-0.16,0.72-0.24,1.08-0.24
			c0.36-0.01,0.68,0.11,0.97,0.36c0.29,0.25,0.55,0.54,0.79,0.89c0.52,0.79,0.77,1.55,0.77,2.28c0,0.73-0.36,1.63-1.08,2.7
			c-0.72,1.07-1.66,2.21-2.79,3.42c-1.14,1.21-2.4,2.47-3.77,3.78c-1.63,1.58-2.45,2.37-4.08,3.95
			C285.31,151,283.23,153.55,282.25,155.47z M281.92,156.21c0.05-0.04,0.07-0.06,0.05-0.06
			C281.93,156.15,281.92,156.17,281.92,156.21z"/>
		<path class="st2" d="M305,153.77c2.89-1.14,5.56-1.77,8.01-1.9c1.64-0.08,2.9,0.31,3.8,1.18c0.81,0.78,1.22,1.86,1.21,3.23
			c0,0.32-0.1,0.58-0.31,0.79c-0.21,0.22-0.48,0.33-0.83,0.35c-0.35,0.02-0.71-0.06-1.09-0.22c-0.38-0.16-0.82-0.34-1.32-0.53
			c-3.25-1.24-6.83-0.9-10.74,0.98c-0.5,0.25-0.93,0.42-1.29,0.54c-0.36,0.11-0.77,0.09-1.21-0.08c-0.45-0.17-0.87-0.4-1.26-0.7
			c-0.98-0.76-1.32-1.57-1.03-2.44c0.29-0.87,0.77-1.84,1.44-2.91s1.43-2.16,2.29-3.25c0.86-1.09,1.79-2.18,2.79-3.25
			c2.64-2.73,4.54-4.64,5.71-5.72c2.69-2.52,4.33-4.05,4.92-4.64c0.59-0.59,0.99-1.06,1.2-1.41c-1.52,0.75-3.51,1.29-5.99,1.62
			c-0.64,0.09-1.16,0.14-1.58,0.15c-1.77,0.04-3.03-0.26-3.78-0.93c-0.75-0.67-1.12-1.69-1.12-3.05c0-0.53,0.11-0.96,0.34-1.26
			c0.22-0.31,0.49-0.46,0.79-0.46c0.3,0,0.7,0.09,1.19,0.27c0.49,0.18,1.09,0.39,1.8,0.62c1.84,0.59,3.46,0.88,4.85,0.86
			c1.39-0.02,2.37-0.1,2.92-0.25c0.55-0.15,1.04-0.31,1.47-0.48c0.48-0.2,0.71-0.3,1.19-0.5c0.36-0.14,0.72-0.22,1.08-0.22
			c0.36,0,0.68,0.11,0.97,0.35c0.29,0.24,0.55,0.53,0.79,0.86c0.52,0.76,0.77,1.49,0.77,2.19c0,0.7-0.36,1.55-1.08,2.55
			c-0.72,1.01-1.66,2.08-2.79,3.22c-1.13,1.14-2.39,2.31-3.77,3.54c-1.63,1.47-2.45,2.22-4.08,3.7
			C308.06,149.51,305.98,151.93,305,153.77z M304.67,154.48c0.05-0.04,0.07-0.06,0.05-0.05
			C304.68,154.43,304.67,154.45,304.67,154.48z"/>
		<path class="st2" d="M343.19,149.6c0,1.58,0.56,2.36,1.68,2.34c0.77-0.01,1.42-0.14,1.92-0.38c0.51-0.25,0.85-0.37,1.02-0.37
			c0.36,0,0.54,0.19,0.54,0.56c0,1.48-0.77,2.76-2.32,3.83c-1.63,1.12-3.32,1.41-5.01,0.87c-1.11-0.36-1.94-1.2-2.48-2.48
			c-0.26-0.66-0.39-1.26-0.39-1.81c0-0.89,0.09-1.83,0.26-2.84c-1.6,3.3-3.59,5.57-5.97,6.84c-0.95,0.49-1.95,0.75-3.02,0.78
			c-1.07,0.03-1.99-0.15-2.78-0.55c-0.78-0.4-1.45-0.96-2-1.7c-1.12-1.54-1.61-3.54-1.52-6.01c0.12-3.09,1.03-6.25,2.72-9.32
			c1.57-2.86,3.56-5.21,5.94-7.01c2.39-1.8,4.63-2.72,6.71-2.72c2.08,0,3.76,0.97,5.03,2.89c1.19-1.92,2.23-2.87,3.15-2.87
			c0.98,0,1.72,0.19,2.22,0.55c0.95,0.69,1.28,1.3,1.01,1.81c-4.32,8.82-6.54,14.42-6.66,16.59
			C343.21,148.93,343.19,149.25,343.19,149.6z M328.86,150.04c0,2.07,0.66,3.06,1.99,3.02c1.01-0.03,2.26-0.91,3.74-2.67
			c2.17-2.58,4.09-6.05,5.76-10.4c0.53-1.36,0.98-2.72,1.34-4.08c-0.07-1.18-0.56-2.05-1.47-2.6c-0.31-0.19-0.77-0.28-1.38-0.28
			c-0.61,0-1.32,0.23-2.14,0.69c-0.82,0.46-1.61,1.08-2.37,1.88c-0.77,0.8-1.48,1.74-2.14,2.83c-0.66,1.09-1.24,2.28-1.74,3.56
			C329.39,144.73,328.86,147.42,328.86,150.04z"/>
	</g>
</g>
<g>
	<path class="st1" d="M277.72,562.46c-1.88-0.16-3.97,1.97-6.29,6.39l-4.25,8.52c-2.7,5.42-5.14,8.93-7.32,10.52
		c3-0.77,6.47-1.15,10.4-1.15c0.56-0.01,1.11,0.01,1.65,0.06c0.53,0.05,1.09,0.18,1.69,0.41c0.59,0.23,1.1,0.54,1.52,0.92
		c0.9,0.84,1.29,1.95,1.17,3.32c-0.07,0.76-0.38,1.11-0.94,1.06c-0.31-0.03-0.6-0.13-0.88-0.31c-0.28-0.18-0.6-0.35-0.96-0.53
		c-0.36-0.17-0.78-0.34-1.26-0.51c-1.09-0.39-2.23-0.64-3.42-0.74c-1.18-0.1-2.33-0.12-3.43-0.05c-1.11,0.07-2.15,0.15-3.13,0.25
		l-2.75,0.29c-0.84,0.08-1.47,0.11-1.9,0.07c-0.43-0.04-0.75-0.16-0.96-0.37c-0.21-0.21-0.41-0.47-0.58-0.78
		c-0.36-0.68-0.53-1.22-0.49-1.63c0.06-0.66,0.25-1.06,0.57-1.22c1.26-0.54,2.83-2.92,4.72-7.14c1.75-3.91,2.94-6.53,3.57-7.86
		c0.63-1.33,1.31-2.62,2.04-3.87c0.73-1.26,1.5-2.43,2.32-3.51c0.82-1.08,1.7-2.02,2.64-2.8c2.02-1.69,4.15-2.43,6.39-2.24
		c1.58,0.14,2.85,0.93,3.81,2.38c0.87,1.33,1.24,2.81,1.1,4.45c-0.19,2.23-1.22,4.46-3.08,6.69c-1.09,1.3-2.22,2.22-3.39,2.75
		c-0.57,0.25-1.08,0.35-1.52,0.31c-0.44-0.04-0.82-0.16-1.14-0.36c-0.32-0.2-0.6-0.44-0.83-0.72c-0.47-0.59-0.69-1.11-0.65-1.55
		c0.04-0.44,0.18-0.72,0.41-0.84c1.78-0.9,3.33-2.04,4.63-3.41c1.41-1.47,2.18-2.95,2.31-4.42
		C279.63,563.36,279.03,562.57,277.72,562.46z"/>
	<path class="st1" d="M296.74,587.22c-0.02,1.29,0.43,1.95,1.35,1.96c0.63,0.01,1.16-0.08,1.57-0.28c0.42-0.19,0.7-0.29,0.84-0.29
		c0.3,0,0.44,0.16,0.44,0.47c-0.01,1.21-0.66,2.24-1.94,3.1c-1.35,0.9-2.71,1.1-4.1,0.62c-0.91-0.33-1.58-1.04-2-2.11
		c-0.2-0.55-0.3-1.05-0.3-1.5c0.01-0.73,0.09-1.5,0.24-2.32c-1.34,2.65-2.99,4.47-4.94,5.46c-0.78,0.38-1.6,0.57-2.47,0.56
		c-0.87-0.01-1.62-0.2-2.26-0.57c-0.63-0.37-1.17-0.87-1.61-1.51c-0.9-1.33-1.29-3-1.18-4.99c0.12-2.5,0.88-4.94,2.31-7.33
		c1.31-2.23,2.95-4.05,4.92-5.44c1.97-1.42,3.81-2.12,5.51-2.1c1.7,0.02,3.06,0.82,4.08,2.39c0.99-1.55,1.86-2.32,2.6-2.31
		c0.8,0.01,1.4,0.16,1.81,0.47c0.76,0.57,1.03,1.07,0.8,1.49c-3.62,7.18-5.49,11.65-5.61,13.42
		C296.76,586.67,296.74,586.94,296.74,587.22z M285.04,587.15c-0.02,1.69,0.51,2.54,1.59,2.55c0.83,0.01,1.86-0.68,3.08-2.07
		c1.8-2.04,3.4-4.81,4.8-8.29c0.45-1.09,0.83-2.18,1.14-3.27c-0.04-0.96-0.44-1.66-1.18-2.12c-0.25-0.16-0.63-0.24-1.12-0.25
		c-0.5-0.01-1.08,0.17-1.76,0.53s-1.32,0.85-1.96,1.47c-0.63,0.62-1.23,1.36-1.78,2.22c-0.55,0.86-1.04,1.79-1.46,2.8
		C285.52,582.87,285.07,585.02,285.04,587.15z"/>
	<path class="st1" d="M331.14,572.68c-0.81,0.1-2.14,1.46-3.99,4.07c-1.37,2.03-2.37,3.55-2.98,4.56l-1.58,2.62
		c-0.62,1.64-1.09,2.99-1.43,4.07l-0.83,2.57c-0.22,0.64-0.42,1.09-0.61,1.36c-0.19,0.27-0.46,0.43-0.83,0.47
		c-0.37,0.05-0.73,0.02-1.09-0.06c-0.36-0.09-0.68-0.22-0.95-0.4c-0.59-0.38-0.91-0.83-0.98-1.36c-0.03-0.21,0.08-0.64,0.3-1.29
		l0.58-1.79c0.19-0.53,0.4-1.21,0.64-2.03l0.81-3.01c1.13-4.32,1.62-7.08,1.47-8.28c-0.08-0.64-0.35-1.09-0.8-1.34l-0.45-0.24
		c-0.15-0.08-0.24-0.24-0.27-0.49c-0.03-0.24,0.03-0.49,0.19-0.74c0.16-0.25,0.38-0.47,0.67-0.68c0.59-0.4,1.2-0.64,1.83-0.72
		c0.63-0.08,1.14-0.07,1.52,0.02c0.38,0.09,0.72,0.24,1.01,0.45c0.59,0.42,0.92,0.9,0.99,1.43c0.07,0.53,0.06,1.07-0.01,1.63
		s-0.18,1.12-0.32,1.7c-0.14,0.58-0.3,1.14-0.47,1.68c-0.41,1.27-0.66,2.05-0.76,2.34c-0.1,0.29-0.13,0.39-0.08,0.32
		c2.14-3.62,3.43-5.77,3.87-6.43c0.92-1.37,1.65-2.33,2.19-2.87c1-0.96,1.99-1.5,2.97-1.63c0.98-0.12,1.81,0.09,2.47,0.63
		c0.66,0.54,1.06,1.31,1.18,2.32c0.11,0.88,0.01,1.94-0.28,3.18c-0.3,1.24-0.49,2.11-0.59,2.6l2.57-4.44l1.46-2.26
		c0.89-1.29,1.7-2.16,2.43-2.62c0.74-0.46,1.35-0.72,1.85-0.78c0.49-0.06,0.99-0.03,1.5,0.09c0.5,0.12,0.94,0.33,1.32,0.62
		c0.8,0.6,1.26,1.46,1.41,2.59c0.14,1.09,0.02,2.23-0.33,3.44c-0.36,1.21-0.68,2.2-0.97,2.98c-0.29,0.78-0.56,1.56-0.81,2.34
		c-0.74,2.34-1.05,4.05-0.91,5.13c0.09,0.75,0.45,1.09,1.06,1.02c0.59-0.07,1.1-0.27,1.55-0.58s0.74-0.48,0.88-0.49
		c0.29-0.04,0.46,0.09,0.49,0.38c0.15,1.24-0.35,2.36-1.51,3.35c-0.78,0.68-1.52,1.06-2.22,1.15c-0.7,0.09-1.28,0.08-1.74-0.04
		c-0.45-0.11-0.88-0.33-1.27-0.65c-0.88-0.71-1.4-1.67-1.55-2.89c-0.15-1.21-0.14-2.35,0.04-3.4c0.18-1.06,0.42-2.09,0.72-3.09
		c0.3-1.01,0.61-1.94,0.94-2.79c0.32-0.86,0.57-1.53,0.73-2.04c0.32-1.03,0.46-1.78,0.4-2.24c-0.07-0.54-0.39-0.78-0.96-0.71
		c-0.75,0.09-1.95,1.51-3.59,4.25c-1.24,2.12-2.09,3.64-2.55,4.57l-1.18,2.27c-0.62,1.64-1.08,2.99-1.38,4.06l-0.76,2.56
		c-0.19,0.63-0.37,1.08-0.53,1.35c-0.16,0.27-0.42,0.42-0.77,0.47c-0.35,0.04-0.69,0.03-1.04-0.04c-0.34-0.07-0.64-0.18-0.9-0.33
		c-0.59-0.34-0.92-0.73-0.98-1.18c-0.06-0.45,0.01-1.09,0.22-1.92c0.2-0.83,0.46-1.75,0.79-2.79l2.15-6.56
		c0.76-2.43,1.1-3.96,1.02-4.58C332.03,572.89,331.71,572.61,331.14,572.68z M333.94,578.32c0.01,0,0.02-0.01,0.02-0.02l0.02-0.04
		C333.95,578.29,333.94,578.31,333.94,578.32z"/>
	<path class="st1" d="M367.69,578.43c0.28,1.26,0.87,1.79,1.76,1.59c0.62-0.14,1.11-0.35,1.47-0.63c0.36-0.28,0.61-0.44,0.75-0.47
		c0.29-0.06,0.47,0.05,0.53,0.35c0.27,1.18-0.13,2.33-1.17,3.46c-1.1,1.18-2.38,1.7-3.84,1.55c-0.96-0.12-1.77-0.65-2.43-1.59
		c-0.32-0.49-0.54-0.95-0.64-1.39c-0.16-0.71-0.26-1.48-0.3-2.31c-0.69,2.89-1.87,5.04-3.54,6.45c-0.67,0.55-1.43,0.92-2.28,1.12
		c-0.85,0.19-1.63,0.18-2.33-0.03c-0.7-0.21-1.34-0.57-1.92-1.09c-1.18-1.09-1.95-2.62-2.3-4.58c-0.47-2.46-0.28-5.01,0.55-7.66
		c0.76-2.47,1.93-4.62,3.53-6.43c1.59-1.84,3.21-2.95,4.87-3.32c1.66-0.37,3.17,0.09,4.52,1.38c0.6-1.73,1.27-2.68,2-2.85
		c0.78-0.18,1.4-0.16,1.87,0.03c0.88,0.38,1.25,0.8,1.12,1.26c-1.86,7.82-2.65,12.6-2.35,14.35
		C367.58,577.89,367.62,578.15,367.69,578.43z M356.29,581.07c0.37,1.65,1.08,2.35,2.14,2.11c0.81-0.18,1.65-1.09,2.52-2.73
		c1.28-2.4,2.2-5.46,2.76-9.17c0.18-1.16,0.3-2.31,0.35-3.45c-0.26-0.92-0.81-1.52-1.63-1.79c-0.28-0.09-0.66-0.09-1.15,0.02
		c-0.49,0.11-1.02,0.42-1.59,0.92c-0.57,0.5-1.09,1.13-1.56,1.88c-0.47,0.75-0.88,1.61-1.21,2.57c-0.34,0.96-0.6,1.98-0.77,3.06
		C355.77,576.79,355.82,578.98,356.29,581.07z"/>
	<path class="st1" d="M395.08,571.87c0.28-0.09,0.47,0.02,0.56,0.31c0.36,1.15,0.06,2.33-0.88,3.53c-0.62,0.81-1.28,1.32-1.98,1.54
		c-0.71,0.22-1.29,0.31-1.76,0.28c-0.47-0.03-0.92-0.17-1.36-0.42c-1-0.57-1.72-1.57-2.15-2.98c-0.09-0.28-0.17-0.75-0.25-1.4
		c-0.57,2.01-1.14,3.48-1.71,4.41c-1.13,1.91-2.45,3.09-3.96,3.56c-2.38,0.73-4.26,0.14-5.67-1.78c-0.51-0.71-0.95-1.66-1.32-2.86
		c-0.37-1.2-0.56-2.46-0.57-3.79c-0.01-1.33,0.12-2.65,0.41-3.94c0.29-1.29,0.69-2.54,1.23-3.74c0.53-1.2,1.15-2.29,1.85-3.27
		c1.51-2.07,3.06-3.34,4.64-3.83c1.58-0.49,3.05-0.23,4.4,0.76c-0.13-8.72,0.18-13.98,0.92-15.78c0.31-0.74,0.75-1.2,1.3-1.37
		c0.91-0.28,1.68-0.23,2.32,0.15c0.2,0.13,0.33,0.28,0.38,0.45c0.05,0.17,0.05,0.53-0.02,1.07c-0.07,0.54-0.15,1.39-0.25,2.57
		c-0.22,3.52-0.35,6.09-0.38,7.71c-0.08,4.13-0.12,6.96-0.12,8.5l0.04,4.07c0.07,3.61,0.24,5.87,0.52,6.77
		c0.28,0.9,0.75,1.25,1.4,1.05c0.61-0.19,1.06-0.42,1.38-0.69l0.65-0.6C394.82,572,394.94,571.91,395.08,571.87z M381.62,577.38
		c1.38-0.43,2.55-2.26,3.51-5.51c1.01-3.37,1.37-6.81,1.1-10.33c-0.33-0.9-0.92-1.45-1.77-1.66c-0.29-0.07-0.68-0.03-1.17,0.12
		c-0.49,0.15-1.01,0.5-1.55,1.06s-1.03,1.23-1.45,2.02c-0.43,0.79-0.78,1.68-1.06,2.65c-0.28,0.98-0.47,1.98-0.58,3.01
		c-0.23,2.25-0.06,4.33,0.53,6.24C379.78,576.9,380.59,577.7,381.62,577.38z"/>
	<path class="st1" d="M399.29,574.26c-0.34-0.1-0.63-0.24-0.88-0.42c-0.25-0.18-0.42-0.36-0.5-0.53c-0.08-0.17-0.13-0.4-0.14-0.69
		c-0.01-0.29-0.02-0.64-0.01-1.07c0.15-7.61-0.22-12.55-1.08-14.8c-0.28-0.61-0.67-0.98-1.16-1.09l-0.5-0.12
		c-0.15-0.05-0.28-0.18-0.37-0.41c-0.1-0.23-0.1-0.48-0.01-0.75c0.09-0.28,0.24-0.54,0.46-0.81c0.45-0.52,0.97-0.89,1.57-1.12
		c0.6-0.23,1.09-0.34,1.47-0.34c0.39,0,0.74,0.07,1.06,0.2c0.68,0.28,1.12,0.68,1.33,1.21c0.21,0.52,0.35,1.08,0.44,1.66
		c0.08,0.59,0.14,1.17,0.17,1.75c0.03,0.58,0.05,1.14,0.06,1.67c0.01,0.53,0.03,0.92,0.06,1.16c0.07,0.5,0.14,0.8,0.21,0.91
		c0.21-0.4,0.3-0.74,0.26-1.03l0.21-1.75c0.53-3.72,1.41-6.4,2.65-8.02c0.37-0.46,0.88-0.81,1.54-1.07
		c0.66-0.25,1.29-0.23,1.87,0.08c0.59,0.31,1,0.74,1.23,1.3c0.24,0.56,0.38,1.04,0.42,1.45c0.04,0.41,0.03,0.82-0.04,1.22
		c-0.15,0.9-0.53,1.47-1.15,1.71c-0.17,0.06-0.35,0.07-0.54,0l-0.58-0.21c-0.58-0.21-1.07-0.24-1.47-0.09
		c-0.4,0.15-0.78,0.6-1.15,1.35c-0.37,0.74-0.7,1.65-1,2.71c-1.02,3.54-1.53,7.26-1.54,11.16l0.01,2.61
		c-0.01,0.65-0.05,1.13-0.13,1.44c-0.08,0.31-0.28,0.53-0.62,0.66c-0.33,0.13-0.69,0.19-1.07,0.2
		C399.98,574.4,399.62,574.36,399.29,574.26z"/>
	<path class="st1" d="M413.12,561.52c-0.46-1.13-0.76-2.28-0.9-3.45c-0.15-1.16-0.17-2.34-0.07-3.54c0.1-1.2,0.32-2.39,0.65-3.57
		c0.33-1.18,0.78-2.28,1.33-3.31c1.2-2.2,2.73-3.73,4.6-4.58c2.19-1,4.05-0.76,5.61,0.7c0.54,0.5,0.99,1.17,1.36,2.01
		c0.37,0.84,0.56,1.69,0.58,2.54c0.02,0.85-0.11,1.69-0.39,2.52c-0.28,0.83-0.68,1.65-1.22,2.45c-0.54,0.8-1.17,1.56-1.91,2.29
		c-1.52,1.47-3.31,2.69-5.37,3.66c0.03,0.2,0.12,0.48,0.27,0.85c0.15,0.36,0.37,0.75,0.66,1.15c0.29,0.4,0.62,0.72,1,0.97
		c0.81,0.56,1.65,0.64,2.52,0.24c1.48-0.68,2.73-1.77,3.74-3.28c0.36-0.52,0.63-1.01,0.8-1.47c0.17-0.46,0.37-0.74,0.6-0.84
		c0.23-0.11,0.49-0.06,0.79,0.14c0.3,0.2,0.53,0.47,0.68,0.81c0.31,0.68,0.39,1.35,0.23,2.03c-0.87,2.35-2.9,4.25-6.08,5.7
		c-1.88,0.86-3.64,0.99-5.3,0.38C415.45,565.22,414.05,563.76,413.12,561.52z M419.48,545.82c-1.34,0.61-2.21,2.12-2.61,4.53
		c-0.32,2.06-0.31,4.33,0.05,6.79c2.03-1.19,3.5-2.88,4.4-5.07c0.81-2.04,0.93-3.69,0.35-4.96
		C421.09,545.85,420.36,545.42,419.48,545.82z"/>
	<path class="st1" d="M462.26,538.92c0.25-0.15,0.46-0.1,0.62,0.17c0.63,1.03,0.63,2.25,0.01,3.64c-0.4,0.93-0.92,1.59-1.55,1.97
		s-1.18,0.61-1.64,0.69c-0.46,0.08-0.93,0.06-1.42-0.07c-1.11-0.31-2.05-1.1-2.81-2.36c-0.15-0.25-0.35-0.68-0.59-1.3
		c-0.06,2.09-0.26,3.66-0.59,4.69c-0.63,2.13-1.63,3.6-2.97,4.41c-2.13,1.29-4.1,1.17-5.93-0.35c-0.67-0.56-1.33-1.38-1.98-2.45
		c-0.65-1.07-1.14-2.25-1.48-3.54c-0.34-1.29-0.52-2.6-0.56-3.92c-0.04-1.32,0.06-2.63,0.28-3.93c0.23-1.29,0.56-2.5,1-3.62
		c0.96-2.37,2.15-3.99,3.57-4.85c1.42-0.86,2.9-0.97,4.46-0.33c-2.24-8.43-3.23-13.61-2.95-15.54c0.12-0.8,0.43-1.35,0.93-1.64
		c0.82-0.49,1.58-0.63,2.28-0.42c0.23,0.08,0.39,0.19,0.48,0.35c0.1,0.16,0.17,0.5,0.24,1.04c0.06,0.54,0.19,1.39,0.39,2.55
		c0.64,3.47,1.14,6,1.5,7.57c0.92,4.02,1.57,6.78,1.95,8.28l1.03,3.94c0.94,3.49,1.66,5.63,2.14,6.44c0.49,0.81,1.03,1.03,1.61,0.67
		c0.54-0.33,0.93-0.66,1.17-1l0.49-0.74C462.04,539.1,462.14,538.99,462.26,538.92z M450.55,547.53c1.24-0.75,1.93-2.82,2.06-6.2
		c0.16-3.51-0.32-6.94-1.44-10.29c-0.54-0.79-1.25-1.18-2.12-1.18c-0.3,0-0.66,0.13-1.1,0.4c-0.44,0.27-0.85,0.73-1.24,1.4
		c-0.39,0.67-0.7,1.44-0.91,2.31c-0.22,0.87-0.35,1.82-0.38,2.83c-0.03,1.01,0.02,2.04,0.17,3.06c0.32,2.24,1,4.21,2.03,5.92
		C448.64,547.51,449.62,548.09,450.55,547.53z"/>
	<path class="st1" d="M463.11,534.54c-0.66-1.03-1.17-2.1-1.53-3.22c-0.36-1.11-0.6-2.27-0.72-3.46c-0.12-1.2-0.13-2.4-0.02-3.63
		c0.11-1.22,0.34-2.39,0.69-3.5c0.77-2.39,1.99-4.18,3.67-5.36c1.96-1.39,3.84-1.51,5.64-0.35c0.62,0.39,1.19,0.96,1.71,1.72
		c0.52,0.76,0.87,1.55,1.04,2.39c0.18,0.83,0.2,1.68,0.09,2.55c-0.12,0.87-0.37,1.74-0.74,2.63c-0.38,0.89-0.86,1.76-1.45,2.6
		c-1.22,1.73-2.75,3.26-4.59,4.6c0.07,0.19,0.21,0.46,0.43,0.78c0.22,0.33,0.5,0.66,0.87,1c0.36,0.34,0.75,0.59,1.16,0.76
		c0.9,0.4,1.74,0.32,2.52-0.23c1.33-0.94,2.35-2.25,3.06-3.92c0.26-0.58,0.43-1.11,0.51-1.59c0.08-0.48,0.23-0.79,0.43-0.94
		c0.21-0.15,0.47-0.15,0.8-0.01c0.33,0.14,0.6,0.36,0.82,0.67c0.43,0.61,0.63,1.26,0.61,1.95c-0.42,2.47-2.06,4.71-4.91,6.74
		c-1.68,1.19-3.4,1.65-5.13,1.36C466.08,537.74,464.44,536.56,463.11,534.54z M466.43,517.93c-1.2,0.85-1.78,2.5-1.72,4.94
		c0.07,2.09,0.5,4.31,1.31,6.67c1.78-1.55,2.9-3.49,3.38-5.8c0.42-2.16,0.23-3.8-0.58-4.94
		C468.02,517.66,467.22,517.37,466.43,517.93z"/>
	<path class="st1" d="M494.3,519.16c-0.5-0.05-1.02-0.22-1.56-0.51c-0.54-0.29-1.05-0.72-1.54-1.29c-0.49-0.57-1.02-1.45-1.58-2.63
		c-0.56-1.18-1.17-2.56-1.82-4.13l-2.08-5.13c-2.86-7.18-5.44-12.41-7.75-15.69c-0.67-0.98-0.62-1.8,0.15-2.47
		c0.49-0.42,1-0.65,1.52-0.69c1.02-0.06,1.77,0.2,2.24,0.8c0.47,0.59,0.97,1.38,1.5,2.36c0.53,0.98,1.07,2.08,1.62,3.3
		c0.55,1.22,1.11,2.54,1.67,3.94l3.38,8.38c1.9,4.78,3.32,7.7,4.24,8.78c0.49,0.57,0.98,0.66,1.44,0.26
		c0.45-0.38,0.77-0.83,0.97-1.34c0.2-0.51,0.36-0.81,0.46-0.9c0.22-0.19,0.43-0.18,0.62,0.05c0.82,0.95,1.01,2.16,0.6,3.63
		c-0.27,1-0.68,1.73-1.22,2.19c-0.54,0.46-1.03,0.77-1.47,0.93C495.27,519.15,494.8,519.2,494.3,519.16z"/>
	<path class="st1" d="M511.17,497.23c0.9,0.93,1.67,1.08,2.33,0.44c0.45-0.44,0.76-0.87,0.92-1.3c0.16-0.43,0.29-0.69,0.39-0.79
		c0.21-0.2,0.43-0.2,0.64,0.03c0.84,0.87,1.11,2.06,0.8,3.56c-0.33,1.58-1.15,2.69-2.47,3.33c-0.88,0.4-1.85,0.37-2.9-0.1
		c-0.53-0.25-0.95-0.53-1.27-0.86c-0.51-0.53-0.99-1.13-1.46-1.81c0.91,2.83,1.02,5.28,0.33,7.35c-0.28,0.82-0.74,1.53-1.36,2.14
		c-0.63,0.61-1.29,1-2,1.19c-0.71,0.19-1.44,0.21-2.21,0.06c-1.57-0.31-3.02-1.22-4.35-2.72c-1.68-1.86-2.85-4.13-3.52-6.83
		c-0.64-2.51-0.75-4.95-0.33-7.32c0.4-2.4,1.21-4.19,2.43-5.37c1.22-1.18,2.75-1.57,4.58-1.17c-0.39-1.8-0.31-2.95,0.22-3.47
		c0.58-0.56,1.11-0.87,1.61-0.94c0.95-0.13,1.49,0.03,1.62,0.49c2.48,7.65,4.3,12.14,5.46,13.48
		C510.8,496.82,510.98,497.02,511.17,497.23z M502.82,505.41c1.17,1.21,2.14,1.44,2.92,0.69c0.6-0.58,0.84-1.79,0.74-3.64
		c-0.16-2.72-0.97-5.81-2.41-9.27c-0.45-1.09-0.95-2.13-1.5-3.13c-0.7-0.65-1.48-0.88-2.33-0.68c-0.29,0.06-0.61,0.27-0.97,0.62
		c-0.36,0.35-0.65,0.88-0.88,1.61c-0.23,0.73-0.35,1.53-0.36,2.42c-0.01,0.89,0.09,1.83,0.3,2.83c0.21,1,0.52,2,0.93,3.01
		C500.15,502.03,501.33,503.87,502.82,505.41z"/>
	<path class="st1" d="M516.8,494.26c-0.32-0.29-0.56-0.63-0.71-1.02c-0.15-0.39-0.22-0.77-0.22-1.15c-0.01-0.8,0.2-1.45,0.63-1.93
		c0.38-0.42,0.78-0.43,1.21-0.04c1.08,0.98,2.16,1.31,3.24,0.97c0.39-0.12,0.72-0.32,0.97-0.6s0.44-0.55,0.56-0.8
		c0.12-0.26,0.18-0.53,0.2-0.82c0.04-0.65-0.15-1.16-0.57-1.54c-0.42-0.38-0.88-0.63-1.4-0.76c-0.52-0.13-1.1-0.23-1.74-0.29
		l-2.06-0.24c-2.8-0.26-4.9-1.02-6.31-2.3c-1.17-1.06-1.78-2.51-1.83-4.36c-0.05-2.1,0.72-4.02,2.31-5.78
		c1.4-1.54,2.87-2.4,4.41-2.58c1.26-0.15,2.28,0.13,3.07,0.85c0.82,0.75,1.2,1.65,1.12,2.72c-0.07,0.96-0.42,1.67-1.04,2.13
		c-0.28,0.2-0.58,0.28-0.91,0.23c-0.33-0.05-0.58-0.23-0.77-0.55c-0.18-0.32-0.42-0.61-0.7-0.86c-0.28-0.26-0.59-0.44-0.92-0.55
		c-0.33-0.11-0.66-0.15-0.99-0.13c-0.67,0.05-1.19,0.28-1.55,0.68c-0.36,0.4-0.62,0.77-0.77,1.11c-0.15,0.34-0.23,0.69-0.24,1.03
		c0.01,0.75,0.28,1.37,0.83,1.86c0.55,0.49,1.1,0.83,1.67,1c0.57,0.17,1.17,0.3,1.82,0.38c0.65,0.08,1.32,0.15,2.02,0.19
		c0.7,0.04,1.39,0.14,2.09,0.27c1.65,0.3,2.87,0.8,3.66,1.53c0.8,0.72,1.31,1.49,1.55,2.31c0.23,0.82,0.3,1.67,0.21,2.55
		c-0.18,1.9-0.91,3.55-2.19,4.96c-1.22,1.34-2.5,2.11-3.85,2.31C518.48,495.19,517.54,494.93,516.8,494.26z"/>
	<path class="st1" d="M541.55,467.74c0.15,0.15,0.88,1.04,2.16,2.69c1.29,1.65,2.29,2.98,3.02,3.99c1.62,2.26,2.53,3.82,2.72,4.66
		c0.14,0.67,0.01,1.28-0.37,1.81c-0.47,0.65-1.15,0.91-2.03,0.79c-0.26-0.03-0.49-0.12-0.72-0.28c-0.22-0.16-0.58-0.68-1.07-1.55
		c-1.23-2.26-4.06-6.13-8.5-11.63c-1.75-2.18-2.95-3.65-3.6-4.42l-1.74-2.09c-1.16-1.37-1.97-2.27-2.43-2.7
		c-0.46-0.43-0.84-0.66-1.14-0.68c-0.3-0.03-0.56,0-0.79,0.08c-0.22,0.08-0.42,0.16-0.6,0.24s-0.36,0.03-0.56-0.14
		c-0.19-0.17-0.32-0.41-0.38-0.7c-0.06-0.29-0.06-0.61,0-0.95c0.13-0.68,0.38-1.29,0.76-1.81c0.37-0.52,0.73-0.88,1.07-1.09
		c0.34-0.2,0.69-0.33,1.04-0.36c0.74-0.09,1.3,0.04,1.69,0.39c0.79,0.75,1.46,1.42,1.98,2c-1.4-4.04-1.32-7.13,0.22-9.27
		c1.41-1.95,3.36-2.52,5.85-1.73c0.87,0.28,1.81,0.79,2.83,1.52c1.01,0.73,1.92,1.62,2.72,2.66c0.8,1.04,1.46,2.16,2,3.34
		c0.53,1.18,0.93,2.4,1.2,3.65c0.27,1.25,0.41,2.47,0.42,3.65c0,2.5-0.53,4.47-1.58,5.93C544.66,467.21,543.28,467.87,541.55,467.74
		z M536.17,459.84c0.5,1,1.06,1.91,1.67,2.74c0.61,0.83,1.25,1.49,1.91,1.96c0.66,0.48,1.31,0.73,1.94,0.75
		c0.63,0.02,1.15-0.24,1.55-0.8c0.4-0.56,0.65-1.22,0.75-1.99c0.1-0.77,0.08-1.6-0.06-2.49c-0.14-0.89-0.39-1.81-0.75-2.75
		c-0.36-0.95-0.81-1.87-1.35-2.76c-1.17-1.94-2.51-3.45-4.02-4.54c-0.82-0.59-1.54-0.94-2.15-1.06c-0.61-0.11-1.08,0.06-1.4,0.51
		c-0.32,0.45-0.49,1.05-0.5,1.79c-0.01,0.74,0.09,1.59,0.27,2.54c0.19,0.95,0.47,1.96,0.83,3.02
		C535.23,457.81,535.67,458.84,536.17,459.84z"/>
	<path class="st1" d="M538.32,428.43c0.11,0.44,0.15,0.88,0.11,1.32s-0.15,0.86-0.35,1.25c-0.19,0.39-0.47,0.7-0.83,0.93
		s-0.76,0.37-1.2,0.43c-0.92,0.13-1.68,0.01-2.28-0.38c-0.6-0.39-1-0.77-1.17-1.16c-0.18-0.39-0.27-0.79-0.27-1.21
		c0-0.8,0.15-1.46,0.47-1.96c0.32-0.5,0.61-0.87,0.85-1.11c0.25-0.23,0.53-0.42,0.85-0.55c0.76-0.33,1.42-0.32,1.99,0.04
		c0.56,0.36,0.98,0.74,1.25,1.13C538.01,427.58,538.21,428,538.32,428.43z M555.24,444.33c0.2-0.31,0.5-0.33,0.9-0.08
		c0.53,0.34,0.93,0.93,1.19,1.78c0.38,1.24,0.18,2.46-0.58,3.65c-0.88,1.37-2.03,1.96-3.47,1.76c-0.51-0.06-1.05-0.27-1.6-0.62
		c-0.56-0.36-1.11-0.85-1.67-1.48c-0.56-0.63-1.12-1.33-1.69-2.1s-1.13-1.57-1.68-2.41l-1.64-2.37c-1.23-1.75-2.12-2.8-2.65-3.14
		c-0.53-0.34-0.92-0.51-1.17-0.5c-0.24,0-0.45,0.04-0.63,0.11l-0.48,0.2c-0.16,0.07-0.34,0.03-0.55-0.1
		c-0.21-0.13-0.36-0.34-0.44-0.62c-0.09-0.28-0.12-0.6-0.1-0.95c0.07-0.71,0.33-1.42,0.78-2.13c1.11-1.74,2.12-2.32,3.03-1.74
		c1.07,0.68,2.11,1.73,3.12,3.16c1.01,1.43,1.82,2.61,2.41,3.53l1.77,2.63c1.3,1.93,2.35,3.15,3.15,3.65
		c0.52,0.33,0.95,0.24,1.28-0.28c0.32-0.51,0.51-0.94,0.54-1.28C555.11,444.68,555.17,444.45,555.24,444.33z"/>
	<path class="st1" d="M560.29,437.09c0.48-2.44,1.22-4.53,2.2-6.26c0.66-1.16,1.49-1.87,2.5-2.14c0.91-0.24,1.87-0.08,2.87,0.49
		c0.23,0.13,0.38,0.31,0.45,0.55c0.07,0.23,0.03,0.47-0.11,0.72s-0.35,0.46-0.64,0.65c-0.29,0.19-0.61,0.42-0.97,0.68
		c-2.35,1.72-3.7,4.31-4.06,7.78c-0.04,0.45-0.1,0.81-0.18,1.11c-0.08,0.3-0.28,0.56-0.61,0.79c-0.33,0.23-0.69,0.42-1.1,0.56
		c-1.01,0.35-1.75,0.25-2.24-0.3c-0.49-0.55-0.95-1.27-1.4-2.14c-0.45-0.88-0.85-1.82-1.21-2.84c-0.36-1.01-0.68-2.07-0.96-3.17
		c-0.68-2.86-1.14-4.91-1.36-6.13c-0.54-2.83-0.89-4.56-1.04-5.21c-0.15-0.64-0.3-1.1-0.45-1.38c-0.12,1.35-0.59,2.96-1.41,4.82
		c-0.21,0.48-0.4,0.87-0.56,1.16c-0.72,1.26-1.45,2.02-2.2,2.3c-0.75,0.27-1.58,0.15-2.49-0.36c-0.35-0.2-0.59-0.44-0.7-0.71
		c-0.11-0.27-0.11-0.52,0.02-0.73c0.12-0.21,0.34-0.46,0.67-0.73c0.33-0.28,0.71-0.62,1.16-1.03c1.16-1.07,2.02-2.1,2.58-3.09
		c0.56-0.99,0.91-1.71,1.03-2.15c0.13-0.45,0.22-0.85,0.28-1.22l0.15-1.03c0.05-0.31,0.15-0.6,0.29-0.85
		c0.15-0.26,0.36-0.44,0.64-0.55c0.28-0.11,0.58-0.18,0.91-0.22c0.73-0.07,1.34,0.03,1.82,0.3c0.48,0.27,0.91,0.86,1.29,1.75
		c0.39,0.9,0.73,1.97,1.02,3.2c0.29,1.23,0.56,2.56,0.8,3.99l0.75,4.26C558.67,433.3,559.42,435.67,560.29,437.09z M560.65,437.61
		c0-0.05-0.01-0.07-0.02-0.06C560.62,437.58,560.63,437.6,560.65,437.61z"/>
	<path class="st1" d="M569.18,420.83c0.34-2.47,0.94-4.59,1.82-6.38c0.59-1.2,1.38-1.96,2.37-2.29c0.9-0.3,1.86-0.19,2.9,0.32
		c0.24,0.12,0.4,0.29,0.48,0.52c0.08,0.23,0.06,0.47-0.06,0.72c-0.12,0.25-0.32,0.48-0.6,0.69c-0.28,0.21-0.58,0.46-0.93,0.74
		c-2.24,1.86-3.44,4.53-3.58,8.01c-0.02,0.45-0.05,0.82-0.12,1.12c-0.06,0.3-0.25,0.58-0.56,0.83c-0.31,0.25-0.67,0.46-1.06,0.63
		c-0.98,0.41-1.74,0.35-2.25-0.17c-0.52-0.52-1.03-1.21-1.53-2.05c-0.5-0.85-0.96-1.77-1.38-2.76c-0.42-0.99-0.8-2.02-1.15-3.1
		c-0.86-2.82-1.43-4.83-1.73-6.04c-0.71-2.79-1.16-4.5-1.35-5.14s-0.37-1.08-0.53-1.35c-0.04,1.36-0.41,2.99-1.12,4.9
		c-0.18,0.49-0.34,0.89-0.49,1.19c-0.64,1.3-1.33,2.11-2.06,2.43c-0.74,0.32-1.57,0.25-2.5-0.21c-0.37-0.18-0.61-0.4-0.74-0.67
		c-0.13-0.27-0.14-0.51-0.03-0.73c0.11-0.22,0.32-0.48,0.63-0.77c0.31-0.29,0.67-0.66,1.09-1.1c1.09-1.14,1.89-2.22,2.39-3.24
		c0.5-1.02,0.8-1.76,0.9-2.21c0.1-0.45,0.17-0.87,0.21-1.24l0.09-1.04c0.03-0.31,0.11-0.61,0.24-0.87c0.13-0.27,0.33-0.46,0.6-0.58
		c0.27-0.12,0.57-0.22,0.9-0.28c0.73-0.11,1.34-0.05,1.83,0.2c0.49,0.24,0.96,0.8,1.4,1.67c0.44,0.87,0.84,1.92,1.21,3.13
		c0.37,1.21,0.71,2.53,1.04,3.94l1.01,4.21C567.33,417.14,568.23,419.46,569.18,420.83z M569.57,421.32
		c-0.01-0.05-0.01-0.07-0.02-0.06C569.54,421.29,569.55,421.31,569.57,421.32z"/>
	<path class="st1" d="M579.87,391.5c1.2,0.49,1.97,0.31,2.31-0.53c0.24-0.59,0.35-1.11,0.32-1.56c-0.02-0.46-0.01-0.75,0.04-0.88
		c0.11-0.27,0.31-0.35,0.6-0.23c1.12,0.46,1.84,1.44,2.17,2.94c0.34,1.58,0.03,2.93-0.92,4.04c-0.64,0.72-1.54,1.08-2.7,1.08
		c-0.59-0.01-1.09-0.1-1.51-0.27c-0.68-0.28-1.36-0.63-2.07-1.07c1.98,2.22,3.07,4.42,3.27,6.6c0.07,0.87-0.06,1.7-0.39,2.51
		c-0.33,0.81-0.78,1.44-1.35,1.89c-0.57,0.46-1.24,0.77-1.99,0.95c-1.57,0.35-3.26,0.1-5.08-0.73c-2.28-1.03-4.27-2.64-5.97-4.83
		c-1.6-2.03-2.68-4.22-3.26-6.57c-0.6-2.36-0.58-4.32,0.07-5.89c0.64-1.57,1.88-2.55,3.72-2.92c-1.08-1.49-1.47-2.58-1.19-3.26
		c0.3-0.74,0.67-1.24,1.1-1.51c0.81-0.5,1.37-0.57,1.68-0.2c5.35,6,8.82,9.38,10.43,10.14C579.37,391.28,579.61,391.39,579.87,391.5
		z M575.52,402.36c1.56,0.64,2.55,0.46,2.96-0.55c0.31-0.77,0.05-1.98-0.79-3.63c-1.24-2.42-3.22-4.92-5.95-7.51
		c-0.85-0.82-1.73-1.57-2.63-2.26c-0.91-0.31-1.71-0.2-2.41,0.31c-0.24,0.17-0.45,0.49-0.64,0.96c-0.19,0.46-0.24,1.07-0.15,1.83
		c0.09,0.76,0.3,1.54,0.65,2.36c0.35,0.82,0.82,1.64,1.42,2.47c0.6,0.83,1.28,1.62,2.07,2.38
		C571.72,400.34,573.55,401.55,575.52,402.36z"/>
	<path class="st1" d="M583.82,386.52c-0.41-0.14-0.77-0.35-1.06-0.65c-0.29-0.3-0.52-0.62-0.67-0.96c-0.33-0.73-0.4-1.41-0.2-2.02
		c0.18-0.53,0.54-0.71,1.08-0.53c1.39,0.46,2.51,0.32,3.36-0.42c0.31-0.27,0.53-0.58,0.64-0.94c0.12-0.36,0.18-0.68,0.18-0.96
		c0-0.28-0.05-0.55-0.15-0.83c-0.23-0.61-0.61-1-1.14-1.18c-0.53-0.18-1.06-0.22-1.59-0.13c-0.53,0.09-1.1,0.24-1.71,0.43
		l-1.98,0.61c-2.66,0.89-4.9,1.04-6.7,0.45c-1.49-0.49-2.64-1.58-3.43-3.25c-0.9-1.9-0.97-3.97-0.22-6.22
		c0.65-1.97,1.65-3.35,2.99-4.14c1.09-0.65,2.14-0.8,3.15-0.47c1.05,0.35,1.76,1.03,2.12,2.04c0.32,0.91,0.29,1.69-0.1,2.37
		c-0.17,0.3-0.42,0.49-0.74,0.58c-0.32,0.09-0.62,0.02-0.92-0.19c-0.3-0.22-0.63-0.39-0.99-0.51c-0.36-0.12-0.72-0.16-1.07-0.13
		c-0.35,0.03-0.67,0.13-0.96,0.28c-0.6,0.32-0.98,0.74-1.15,1.25c-0.17,0.51-0.25,0.96-0.25,1.33c0,0.37,0.07,0.72,0.2,1.04
		c0.31,0.68,0.81,1.13,1.51,1.37c0.7,0.23,1.34,0.31,1.93,0.24c0.59-0.07,1.19-0.2,1.82-0.39c0.62-0.19,1.26-0.4,1.92-0.64
		c0.66-0.24,1.33-0.44,2.02-0.6c1.63-0.39,2.95-0.42,3.97-0.08c1.02,0.34,1.8,0.83,2.35,1.49c0.55,0.65,0.95,1.4,1.22,2.25
		c0.6,1.81,0.6,3.62,0,5.42c-0.57,1.72-1.43,2.94-2.59,3.67C585.73,386.69,584.77,386.83,583.82,386.52z"/>
</g>
</svg>
